<svg width="32" height="32" viewBox="0 0 504 480" fill="none" xmlns="http://www.w3.org/2000/svg">
<path d="M160 400C138.988 400 118.183 395.861 98.7706 387.821C79.3585 379.78 61.7203 367.994 46.8629 353.137C32.0055 338.28 20.22 320.641 12.1793 301.229C4.13852 281.817 -1.52588e-05 261.011 0 240C0 218.988 4.13852 198.183 12.1793 178.771C20.22 159.359 32.0055 141.72 46.8629 126.863C61.7203 112.006 79.3586 100.22 98.7706 92.1793C118.183 84.1385 138.989 80 160 80L160 400Z" fill="white"/>
<rect x="192" width="120" height="480" fill="#F9436F"/>
<path d="M344 80C365.012 80 385.817 84.1385 405.229 92.1793C424.641 100.22 442.28 112.006 457.137 126.863C471.994 141.72 483.78 159.359 491.821 178.771C499.861 198.183 504 218.989 504 240C504 261.012 499.861 281.817 491.821 301.229C483.78 320.641 471.994 338.28 457.137 353.137C442.28 367.994 424.641 379.78 405.229 387.821C385.817 395.862 365.011 400 344 400L344 80Z" fill="white"/>
</svg>
