<svg width="480" height="512" viewBox="0 0 480 512" fill="none" xmlns="http://www.w3.org/2000/svg">
<rect x="480" width="240" height="480" transform="rotate(90 480 0)" fill="#F9436F"/>
<path d="M480 272C480 303.517 473.792 334.726 461.731 363.844C449.67 392.962 431.992 419.42 409.706 441.706C387.42 463.992 360.962 481.67 331.844 493.731C302.726 505.792 271.517 512 240 512C208.483 512 177.274 505.792 148.156 493.731C119.038 481.67 92.5804 463.992 70.2944 441.706C48.0083 419.42 30.33 392.962 18.2689 363.844C6.20776 334.726 0 303.517 0 272L480 272Z" fill="#2E2D2C"/>
</svg>
